<?xml version="1.0" encoding="UTF-8"?>
<svg xmlns="http://www.w3.org/2000/svg" xmlns:xlink="http://www.w3.org/1999/xlink" width="32" height="32" version="1.1" viewBox="0 0 32 32">
    <g id="surface1">
        <path d="M 6.667969 5.183594 C 6.484375 5.257812 6.265625 5.382812 6.183594 5.460938 C 6.097656 5.535156 5.996094 5.601562 5.953125 5.601562 C 5.863281 5.605469 5.453125 6.167969 5.257812 6.554688 C 4.914062 7.242188 4.859375 7.753906 4.804688 10.878906 L 4.753906 13.878906 L 4.53125 14.351562 C 4.402344 14.621094 4.101562 15.027344 3.832031 15.300781 C 3.253906 15.886719 3.253906 15.9375 3.792969 16.484375 C 4.027344 16.722656 4.339844 17.136719 4.484375 17.398438 L 4.75 17.878906 L 4.808594 20.921875 C 4.890625 25.046875 5.058594 25.695312 6.242188 26.441406 C 7.121094 26.996094 9.847656 27.082031 9.921875 26.554688 C 9.976562 26.171875 9.675781 25.921875 8.996094 25.792969 C 7.671875 25.546875 7.359375 24.660156 7.359375 21.097656 C 7.355469 17.695312 7.234375 17.117188 6.339844 16.265625 L 5.988281 15.929688 L 6.375 15.542969 C 7.246094 14.679688 7.285156 14.476562 7.355469 10.761719 C 7.417969 7.308594 7.449219 7.132812 8.046875 6.597656 C 8.359375 6.316406 9.117188 5.921875 9.335938 5.921875 C 9.765625 5.921875 10.089844 5.449219 9.835938 5.195312 C 9.617188 4.976562 7.191406 4.96875 6.667969 5.183594 M 22.179688 5.121094 C 21.800781 5.273438 22.070312 5.921875 22.511719 5.921875 C 22.578125 5.921875 22.875 6.035156 23.167969 6.175781 C 24.476562 6.800781 24.632812 7.363281 24.636719 11.433594 C 24.640625 14.449219 24.722656 14.804688 25.625 15.671875 C 25.90625 15.9375 25.910156 16.238281 25.632812 16.238281 C 25.46875 16.238281 24.910156 17.152344 24.777344 17.640625 C 24.667969 18.03125 24.636719 18.617188 24.609375 20.878906 C 24.566406 24.675781 24.292969 25.492188 22.957031 25.824219 C 22.035156 26.050781 21.703125 26.453125 22.132812 26.808594 C 22.570312 27.171875 25.148438 26.867188 25.800781 26.371094 C 26.882812 25.554688 26.972656 25.214844 27.050781 21.558594 C 27.128906 17.71875 27.183594 17.476562 28.117188 16.535156 C 28.65625 15.992188 28.660156 15.890625 28.191406 15.4375 C 27.175781 14.449219 27.117188 14.199219 27.035156 10.320312 C 26.960938 6.707031 26.855469 6.269531 25.871094 5.574219 C 25.1875 5.09375 22.941406 4.816406 22.179688 5.121094 M 10.480469 13.269531 C 9.5 13.636719 8.800781 14.441406 8.679688 15.339844 L 8.625 15.761719 L 9.1875 15.761719 C 9.742188 15.761719 9.746094 15.757812 9.800781 15.519531 C 9.828125 15.390625 9.886719 15.261719 9.925781 15.234375 C 9.96875 15.210938 10 15.136719 10 15.070312 C 10 14.871094 10.558594 14.40625 10.910156 14.3125 C 11.921875 14.039062 13.039062 14.675781 13.039062 15.523438 L 13.039062 15.761719 L 14.238281 15.761719 L 14.238281 15.53125 C 14.238281 13.949219 12.097656 12.664062 10.480469 13.269531 M 19.320312 13.269531 C 18.300781 13.609375 17.460938 14.609375 17.445312 15.5 L 17.441406 15.761719 L 18.640625 15.761719 L 18.640625 15.519531 C 18.640625 13.949219 21.402344 13.839844 21.835938 15.390625 L 21.941406 15.761719 L 23.054688 15.761719 L 23 15.339844 C 22.941406 14.914062 22.683594 14.332031 22.5 14.214844 C 22.445312 14.179688 22.398438 14.101562 22.398438 14.035156 C 22.398438 13.972656 22.371094 13.921875 22.332031 13.921875 C 22.296875 13.921875 22.160156 13.832031 22.03125 13.722656 C 21.398438 13.175781 20.203125 12.976562 19.320312 13.269531 M 13.519531 19.421875 C 13.523438 21.367188 15.21875 22.585938 16.980469 21.914062 C 17.386719 21.757812 18.078125 21.210938 18.078125 21.046875 C 18.078125 21.007812 18.117188 20.960938 18.160156 20.945312 C 18.316406 20.894531 18.558594 20.007812 18.558594 19.480469 L 18.558594 18.960938 L 17.542969 18.960938 L 17.492188 19.566406 C 17.320312 21.617188 14.558594 21.632812 14.558594 19.585938 L 14.558594 18.960938 L 13.519531 18.960938 L 13.519531 19.421875 " style="stroke:none;fill-rule:evenodd;fill:rgb(0%,0%,0%);fill-opacity:1"/>
    </g>
</svg>
